<svg width="48" height="48" viewBox="0 0 48 48" fill="none" xmlns="http://www.w3.org/2000/svg">
<mask id="mask0_451_55" style="mask-type:alpha" maskUnits="userSpaceOnUse" x="0" y="0" width="48" height="48">
<rect width="48" height="48" fill="#D9D9D9"/>
</mask>
<g mask="url(#mask0_451_55)">
<path d="M14.95 41.9248C11.9374 41.9248 9.37175 40.8654 7.25305 38.7467C5.13432 36.628 4.07495 34.0624 4.07495 31.0498C4.07495 28.1831 5.03745 25.7081 6.96245 23.6248C8.88745 21.5415 11.2833 20.3998 14.15 20.1998L6.09995 4.0498H19.975L24 12.1248L28.05 4.0498H41.9L33.9 20.0998C36.75 20.3331 39.1375 21.4924 41.0625 23.5777C42.9874 25.663 43.95 28.1403 43.95 31.0096C43.95 34.0516 42.8881 36.6313 40.7645 38.7487C38.6409 40.8661 36.0527 41.9248 33 41.9248C32.7 41.9248 32.3916 41.9165 32.075 41.8998C31.7583 41.8831 31.45 41.8415 31.15 41.7748C33.0666 40.7248 34.5125 39.2218 35.4875 37.2658C36.4625 35.3097 36.95 33.2199 36.95 30.9965C36.95 27.382 35.6958 24.3206 33.1875 21.8123C30.6791 19.304 27.6166 18.0498 24 18.0498C20.3833 18.0498 17.325 19.304 14.825 21.8123C12.325 24.3206 11.075 27.382 11.075 30.9965C11.075 33.1987 11.5541 35.2831 12.5125 37.2498C13.4708 39.2165 14.9083 40.7248 16.825 41.7748C16.525 41.8415 16.2125 41.8831 15.8875 41.8998C15.5625 41.9165 15.25 41.9248 14.95 41.9248ZM24.0162 41.0498C21.222 41.0498 18.8458 40.0736 16.8875 38.1211C14.9291 36.1687 13.95 33.7978 13.95 31.0086C13.95 28.2194 14.9262 25.8415 16.8787 23.8748C18.8311 21.9081 21.2019 20.9248 23.9912 20.9248C26.7804 20.9248 29.1583 21.9027 31.125 23.8586C33.0916 25.8145 34.075 28.1895 34.075 30.9836C34.075 33.7777 33.097 36.154 31.1411 38.1123C29.1852 40.0706 26.8103 41.0498 24.0162 41.0498ZM20.3526 36.4248L24.005 33.6524L27.675 36.4248L26.275 31.9248L29.95 29.2998H25.4379L24 24.5498L22.5681 29.2998H18.075L21.7237 31.9196L20.3526 36.4248Z" fill="black"/>
</g>
</svg>
