<svg width="48" height="48" viewBox="0 0 48 48" fill="none" xmlns="http://www.w3.org/2000/svg">
<mask id="mask0_451_49" style="mask-type:alpha" maskUnits="userSpaceOnUse" x="0" y="0" width="48" height="48">
<rect width="48" height="48" fill="#D9D9D9"/>
</mask>
<g mask="url(#mask0_451_49)">
<path d="M23.997 22.1751C25.2324 22.1751 26.2709 21.7553 27.1126 20.9157C27.9543 20.0761 28.3751 19.0386 28.3751 17.8032C28.3751 16.5678 27.9553 15.5293 27.1157 14.6876C26.2761 13.8459 25.2386 13.4251 24.0032 13.4251C22.7678 13.4251 21.7293 13.8449 20.8876 14.6845C20.0459 15.5241 19.6251 16.5616 19.6251 17.797C19.6251 19.0324 20.0449 20.0709 20.8845 20.9126C21.7241 21.7543 22.7616 22.1751 23.997 22.1751ZM15.1001 41.7751V38.9001H22.5751V31.419C20.7751 31.0731 19.18 30.3102 17.7899 29.1304C16.3999 27.9507 15.4463 26.4739 14.9291 24.7001C12.4931 24.4334 10.4334 23.4584 8.7501 21.7751C7.06676 20.0918 6.2251 18.0584 6.2251 15.6751V13.4751C6.2251 12.6761 6.50453 11.9972 7.0634 11.4384C7.62223 10.8795 8.30113 10.6001 9.1001 10.6001H14.3501V6.2251H33.6501V10.6001H38.9001C39.6991 10.6001 40.378 10.8795 40.9368 11.4384C41.4957 11.9972 41.7751 12.6761 41.7751 13.4751V15.6751C41.7751 18.0584 40.9334 20.0918 39.2501 21.7751C37.5668 23.4584 35.5119 24.4334 33.0856 24.7001C32.5619 26.4668 31.6059 27.9411 30.2174 29.1232C28.829 30.3053 27.2399 31.0726 25.4501 31.4251V38.9001H32.9251V41.7751H15.1001ZM14.3501 21.6751V13.4751H9.1001V15.6751C9.1001 17.1751 9.6001 18.4751 10.6001 19.5751C11.6001 20.6751 12.8501 21.3751 14.3501 21.6751ZM33.6501 21.6751C35.1501 21.3751 36.4001 20.6751 37.4001 19.5751C38.4001 18.4751 38.9001 17.1751 38.9001 15.6751V13.4751H33.6501V21.6751Z" fill="black"/>
</g>
</svg>
