<svg width="48" height="48" viewBox="0 0 48 48" fill="none" xmlns="http://www.w3.org/2000/svg">
<mask id="mask0_451_37" style="mask-type:alpha" maskUnits="userSpaceOnUse" x="0" y="0" width="48" height="48">
<rect width="48" height="48" fill="#D9D9D9"/>
</mask>
<g mask="url(#mask0_451_37)">
<path d="M14.1001 4.2002H33.9001V20.6396C33.9001 21.3989 33.7084 22.0946 33.3251 22.7268C32.9418 23.3591 32.4139 23.8771 31.7416 24.281L24.7751 28.3252L26.0523 33.1502H32.6001L27.2757 37.1327L29.3238 43.6752L23.9995 39.7371L18.6251 43.6752L20.6751 37.1252L15.3501 33.1502H21.9479L23.1751 28.3252L16.2585 24.281C15.5862 23.8771 15.0584 23.3591 14.6751 22.7268C14.2918 22.0946 14.1001 21.3989 14.1001 20.6396V4.2002ZM22.7751 7.0752V24.6002L24.2251 25.3502L25.6501 24.6002V7.0752H22.7751Z" fill="black"/>
</g>
</svg>
