<svg width="48" height="48" viewBox="0 0 48 48" fill="none" xmlns="http://www.w3.org/2000/svg">
<mask id="mask0_3467_309" style="mask-type:alpha" maskUnits="userSpaceOnUse" x="0" y="0" width="48" height="48">
<rect width="48" height="48" fill="#D9D9D9"/>
</mask>
<g mask="url(#mask0_3467_309)">
<path d="M36.7 25.2001L34.7 23.2001L39.375 18.5001C35.525 17.8501 32.1708 18.1125 29.3125 19.2875C26.4541 20.4625 23.975 22.0584 21.875 24.0751C23.425 20.6917 25.8083 18.0917 29.025 16.2751C32.2416 14.4584 35.7166 13.55 39.45 13.55L34.7 8.80005L36.7 6.77505L45.925 16L36.7 25.2001ZM24 43.9001C18.85 39.4501 14.9083 35.3042 12.175 31.4626C9.44162 27.6209 8.07495 23.9334 8.07495 20.4001C8.07495 15.8834 9.61662 12.0292 12.7 8.83755C15.7833 5.64588 19.55 4.05005 24 4.05005C25.5666 4.05005 27.1 4.25838 28.6 4.67505C30.1 5.09172 31.5 5.74172 32.8 6.62505L30.75 8.67505C29.7333 8.07505 28.65 7.63338 27.5 7.35005C26.35 7.06672 25.1833 6.92505 24 6.92505C20.3333 6.92505 17.2416 8.24172 14.725 10.875C12.2083 13.5084 10.95 16.6834 10.95 20.4001C10.95 23.1667 12.0541 26.1667 14.2625 29.4001C16.4708 32.6334 19.7166 36.2084 24 40.1251C26 38.2917 27.8583 36.2876 29.575 34.1126C31.2916 31.9375 32.9666 29.6251 34.6 27.1751L36.675 29.2501C34.7416 32.1001 32.7666 34.7251 30.75 37.1251C28.7333 39.5251 26.4833 41.7834 24 43.9001Z" fill="#C5FB67"/>
</g>
</svg>
