<svg width="48" height="48" viewBox="0 0 48 48" fill="none" xmlns="http://www.w3.org/2000/svg">
<mask id="mask0_3467_321" style="mask-type:alpha" maskUnits="userSpaceOnUse" x="0" y="0" width="48" height="48">
<rect width="48" height="48" fill="#D9D9D9"/>
</mask>
<g mask="url(#mask0_3467_321)">
<path d="M23.625 23.7249C24.4744 22.6914 25.1076 21.6138 25.5246 20.4922C25.9415 19.3705 26.15 18.0731 26.15 16.5999C26.15 15.1266 25.9417 13.8292 25.525 12.7075C25.1083 11.5858 24.475 10.5082 23.625 9.47491C26.125 8.90824 28.3167 9.27907 30.2 10.5874C32.0833 11.8957 33.025 13.8999 33.025 16.5999C33.025 19.2999 32.0833 21.3034 30.2 22.6104C28.3167 23.9173 26.125 24.2888 23.625 23.7249ZM34.425 39.6749V35.1249C34.425 33.4546 34.0014 31.8995 33.1543 30.4596C32.3072 29.0197 30.8224 27.8081 28.7 26.8249C34.4076 27.5382 38.3012 28.5901 40.3807 29.9804C42.4602 31.3707 43.5 33.0883 43.5 35.1333V39.6749H34.425ZM39.8 25.4749V20.4999H34.825V17.6249H39.8V12.6499H42.675V17.6249H47.65V20.4999H42.675V25.4749H39.8ZM15.8875 23.9749C13.7125 23.9749 11.9417 23.2919 10.575 21.926C9.20833 20.5601 8.525 18.7851 8.525 16.601C8.525 14.4169 9.20807 12.6416 10.5742 11.2749C11.9404 9.90824 13.7156 9.22491 15.9 9.22491C18.0667 9.22491 19.8375 9.90787 21.2125 11.2738C22.5875 12.6397 23.275 14.4147 23.275 16.5988C23.275 18.7829 22.5875 20.5582 21.2125 21.9249C19.8375 23.2916 18.0625 23.9749 15.8875 23.9749ZM0.375 39.6749V35.1249C0.375 33.9667 0.675 32.9229 1.275 31.9937C1.875 31.0645 2.689 30.372 3.717 29.9162C6.10567 28.872 8.225 28.1166 10.075 27.6499C11.925 27.1832 13.8625 26.9499 15.8875 26.9499C17.9125 26.9499 19.8432 27.1832 21.6796 27.6499C23.516 28.1166 25.6308 28.8747 28.0239 29.9244C29.0413 30.3747 29.8625 31.0658 30.4875 31.9975C31.1125 32.9292 31.425 33.9757 31.425 35.137V39.6749H0.375Z" fill="#C5FB67"/>
</g>
</svg>
