<svg width="48" height="48" viewBox="0 0 48 48" fill="none" xmlns="http://www.w3.org/2000/svg">
<mask id="mask0_3467_303" style="mask-type:alpha" maskUnits="userSpaceOnUse" x="0" y="0" width="48" height="48">
<rect width="48" height="48" fill="#D9D9D9"/>
</mask>
<g mask="url(#mask0_3467_303)">
<path d="M5.00005 21.1251L13.35 12.8001C13.8 12.3334 14.3375 12.0043 14.9625 11.8126C15.5875 11.6209 16.2334 11.5834 16.9 11.7001L20.65 12.3751C18.85 14.4084 17.3792 16.3501 16.2375 18.2001C15.0959 20.0501 14.0584 22.1918 13.125 24.6251L5.00005 21.1251ZM15.05 25.5501C15.95 23.1668 17.0917 20.8918 18.475 18.7251C19.8584 16.5584 21.4 14.6251 23.1 12.9251C26.0167 10.0084 29.3459 7.82926 33.0875 6.38759C36.8292 4.94592 40.3334 4.50009 43.6 5.05009C44.15 8.31676 43.7125 11.8209 42.2875 15.5626C40.8625 19.3043 38.6834 22.6334 35.75 25.5501C34.05 27.2668 32.1084 28.8126 29.925 30.1876C27.7417 31.5626 25.4667 32.7001 23.1 33.6001L15.05 25.5501ZM29.35 19.3001C30 19.9668 30.8042 20.3001 31.7625 20.3001C32.7209 20.3001 33.5334 19.9668 34.2 19.3001C34.8667 18.6501 35.2 17.8459 35.2 16.8876C35.2 15.9293 34.8667 15.1168 34.2 14.4501C33.5334 13.7834 32.7209 13.4501 31.7625 13.4501C30.8042 13.4501 30 13.7834 29.35 14.4501C28.6834 15.1168 28.35 15.9293 28.35 16.8876C28.35 17.8459 28.6834 18.6501 29.35 19.3001ZM27.575 43.6501L24.025 35.5251C26.4584 34.5918 28.5959 33.5543 30.4375 32.4126C32.2792 31.2709 34.2167 29.8001 36.25 28.0001L36.9501 31.7501C37.0667 32.4168 37.0292 33.0668 36.8376 33.7001C36.6459 34.3334 36.3167 34.8834 35.85 35.3501L27.575 43.6501ZM8.15005 32.1251C9.31672 30.9751 10.7209 30.3959 12.3625 30.3876C14.0042 30.3793 15.4 30.9501 16.55 32.1001C17.7 33.2501 18.2792 34.6459 18.2875 36.2876C18.2959 37.9293 17.7167 39.3334 16.55 40.5001C15.6667 41.3834 14.3292 42.1001 12.5375 42.6501C10.7459 43.2001 8.04172 43.7251 4.42505 44.2251C4.92505 40.6084 5.45005 37.9084 6.00005 36.1251C6.55005 34.3418 7.26672 33.0084 8.15005 32.1251Z" fill="#C5FB67"/>
</g>
</svg>
