<svg width="244" height="54" viewBox="0 0 244 54" fill="none" xmlns="http://www.w3.org/2000/svg">
<g clip-path="url(#clip0_127_28)">
<path d="M68.816 39V33.384H78.032C79.824 33.384 81.312 33 82.496 32.232C83.68 31.432 84.576 30.28 85.184 28.776C85.792 27.272 86.096 25.432 86.096 23.256C86.096 21.464 85.904 19.928 85.52 18.648C85.136 17.336 84.56 16.264 83.792 15.432C83.056 14.6 82.112 13.976 80.96 13.56C79.84 13.144 78.512 12.936 76.976 12.936H68.816V7.32H76.736C80.576 7.32 83.712 7.944 86.144 9.192C88.576 10.44 90.368 12.232 91.52 14.568C92.672 16.872 93.248 19.64 93.248 22.872C93.248 25.304 92.96 27.416 92.384 29.208C91.808 31 91.024 32.52 90.032 33.768C89.072 35.016 87.952 36.024 86.672 36.792C85.392 37.56 84.032 38.12 82.592 38.472C81.152 38.824 79.696 39 78.224 39H68.816ZM65.504 39V7.32H72.416V39H65.504ZM110.489 39.672C108.409 39.672 106.553 39.384 104.921 38.808C103.321 38.232 101.961 37.4 100.841 36.312C99.7214 35.224 98.8574 33.88 98.2494 32.28C97.6734 30.68 97.3854 28.872 97.3854 26.856C97.3854 24.872 97.6574 23.048 98.2014 21.384C98.7774 19.688 99.6094 18.232 100.697 17.016C101.785 15.768 103.113 14.808 104.681 14.136C106.249 13.464 108.025 13.128 110.009 13.128C111.929 13.128 113.641 13.448 115.145 14.088C116.649 14.696 117.897 15.624 118.889 16.872C119.913 18.12 120.649 19.656 121.097 21.48C121.577 23.272 121.753 25.336 121.625 27.672L101.849 27.864V24.072L117.641 23.928L115.193 25.848C115.417 24.152 115.305 22.76 114.857 21.672C114.409 20.584 113.753 19.784 112.889 19.272C112.057 18.76 111.129 18.504 110.105 18.504C108.889 18.504 107.817 18.824 106.889 19.464C105.961 20.104 105.241 21.048 104.729 22.296C104.217 23.512 103.961 24.984 103.961 26.712C103.961 29.432 104.553 31.432 105.737 32.712C106.953 33.992 108.537 34.632 110.489 34.632C111.385 34.632 112.137 34.52 112.745 34.296C113.385 34.04 113.897 33.72 114.281 33.336C114.697 32.952 115.017 32.52 115.241 32.04C115.497 31.56 115.705 31.08 115.865 30.6L121.865 31.896C121.577 33.08 121.145 34.152 120.569 35.112C120.025 36.04 119.289 36.856 118.361 37.56C117.433 38.232 116.313 38.744 115.001 39.096C113.721 39.48 112.217 39.672 110.489 39.672ZM137.029 39.672C135.333 39.672 133.797 39.512 132.421 39.192C131.045 38.872 129.861 38.408 128.869 37.8C127.877 37.192 127.077 36.472 126.469 35.64C125.861 34.776 125.461 33.816 125.269 32.76L130.549 30.6C130.677 31.304 131.029 31.96 131.605 32.568C132.181 33.176 132.949 33.672 133.909 34.056C134.901 34.408 136.085 34.584 137.461 34.584C138.933 34.584 140.069 34.376 140.869 33.96C141.669 33.512 142.069 32.888 142.069 32.088C142.069 31.48 141.845 31 141.397 30.648C140.949 30.296 140.293 29.992 139.429 29.736C138.565 29.48 137.525 29.24 136.309 29.016C135.125 28.728 133.909 28.424 132.661 28.104C131.445 27.784 130.309 27.336 129.253 26.76C128.229 26.184 127.381 25.432 126.709 24.504C126.069 23.544 125.749 22.328 125.749 20.856C125.749 19.32 126.165 17.976 126.997 16.824C127.829 15.672 129.045 14.776 130.645 14.136C132.245 13.464 134.197 13.128 136.501 13.128C138.581 13.128 140.405 13.416 141.973 13.992C143.541 14.536 144.821 15.336 145.813 16.392C146.837 17.416 147.525 18.648 147.877 20.088L142.261 21.96C142.133 21.192 141.813 20.52 141.301 19.944C140.821 19.368 140.165 18.936 139.333 18.648C138.533 18.36 137.589 18.216 136.501 18.216C135.125 18.216 134.053 18.44 133.285 18.888C132.549 19.336 132.181 19.928 132.181 20.664C132.181 21.272 132.421 21.768 132.901 22.152C133.413 22.536 134.117 22.856 135.013 23.112C135.909 23.336 136.965 23.576 138.181 23.832C139.461 24.088 140.709 24.392 141.925 24.744C143.141 25.064 144.229 25.496 145.189 26.04C146.181 26.584 146.965 27.304 147.541 28.2C148.117 29.096 148.405 30.248 148.405 31.656C148.405 33.32 147.957 34.76 147.061 35.976C146.165 37.16 144.869 38.072 143.173 38.712C141.477 39.352 139.429 39.672 137.029 39.672ZM153.152 39V13.8H160.064V39H153.152ZM156.656 10.008C155.312 10.008 154.272 9.736 153.536 9.192C152.832 8.616 152.48 7.784 152.48 6.696C152.48 5.576 152.832 4.728 153.536 4.152C154.272 3.576 155.312 3.288 156.656 3.288C158.032 3.288 159.072 3.576 159.776 4.152C160.512 4.728 160.88 5.576 160.88 6.696C160.88 7.752 160.512 8.568 159.776 9.144C159.072 9.72 158.032 10.008 156.656 10.008ZM176.449 47.784C173.697 47.784 171.425 47.56 169.633 47.112C167.873 46.696 166.577 46.072 165.745 45.24C164.913 44.408 164.497 43.368 164.497 42.12C164.497 40.648 165.073 39.448 166.225 38.52C167.409 37.592 169.137 37.032 171.409 36.84V35.88C169.681 35.88 168.353 35.704 167.425 35.352C166.497 34.968 166.033 34.312 166.033 33.384C166.033 32.488 166.481 31.688 167.377 30.984C168.305 30.28 169.825 29.72 171.937 29.304V28.344C169.953 28.216 168.401 27.576 167.281 26.424C166.161 25.272 165.601 23.784 165.601 21.96C165.601 20.36 166.049 18.936 166.945 17.688C167.841 16.408 169.169 15.4 170.929 14.664C172.721 13.896 174.913 13.512 177.505 13.512H190.273V18.792L182.353 17.688V18.792C184.401 19.08 185.873 19.592 186.769 20.328C187.697 21.064 188.161 22.088 188.161 23.4C188.161 24.712 187.729 25.864 186.865 26.856C186.001 27.848 184.769 28.632 183.169 29.208C181.601 29.752 179.713 30.024 177.505 30.024C177.089 30.024 176.641 30.008 176.161 29.976C175.681 29.944 174.881 29.864 173.761 29.736C173.153 30.184 172.673 30.584 172.321 30.936C172.001 31.256 171.841 31.56 171.841 31.848C171.841 32.072 171.953 32.264 172.177 32.424C172.433 32.584 172.753 32.696 173.137 32.76C173.553 32.824 173.969 32.856 174.385 32.856H181.585C182.225 32.856 183.057 32.904 184.081 33C185.105 33.064 186.129 33.304 187.153 33.72C188.177 34.136 189.041 34.808 189.745 35.736C190.449 36.632 190.801 37.928 190.801 39.624C190.801 41.48 190.273 43.016 189.217 44.232C188.193 45.448 186.609 46.344 184.465 46.92C182.353 47.496 179.681 47.784 176.449 47.784ZM177.217 42.264C179.169 42.264 180.689 42.152 181.777 41.928C182.865 41.736 183.633 41.4 184.081 40.92C184.561 40.472 184.801 39.896 184.801 39.192C184.801 38.552 184.657 38.056 184.369 37.704C184.113 37.352 183.761 37.112 183.313 36.984C182.897 36.824 182.465 36.728 182.017 36.696C181.601 36.632 181.233 36.6 180.913 36.6H174.865C173.521 36.728 172.545 37.096 171.937 37.704C171.361 38.28 171.073 38.952 171.073 39.72C171.073 40.424 171.297 40.952 171.745 41.304C172.193 41.656 172.865 41.896 173.761 42.024C174.689 42.184 175.841 42.264 177.217 42.264ZM177.121 26.424C178.657 26.424 179.809 26.056 180.577 25.32C181.345 24.552 181.729 23.56 181.729 22.344C181.729 21.064 181.329 20.008 180.529 19.176C179.761 18.344 178.625 17.928 177.121 17.928C175.649 17.928 174.497 18.344 173.665 19.176C172.833 19.976 172.417 21.016 172.417 22.296C172.417 23.096 172.593 23.816 172.945 24.456C173.329 25.064 173.873 25.544 174.577 25.896C175.281 26.248 176.129 26.424 177.121 26.424ZM195.293 39V23.736V13.8H200.957L200.909 21.336H201.869C202.285 19.512 202.877 17.992 203.645 16.776C204.413 15.56 205.373 14.648 206.525 14.04C207.709 13.432 209.101 13.128 210.701 13.128C213.613 13.128 215.821 14.152 217.325 16.2C218.861 18.248 219.629 21.464 219.629 25.848V39H212.669V26.616C212.669 23.928 212.269 21.976 211.469 20.76C210.701 19.512 209.565 18.888 208.061 18.888C206.781 18.888 205.709 19.288 204.845 20.088C203.981 20.888 203.325 21.944 202.877 23.256C202.461 24.536 202.237 25.976 202.205 27.576V39H195.293Z" fill="white"/>
<mask id="mask0_127_28" style="mask-type:luminance" maskUnits="userSpaceOnUse" x="1" y="-1" width="244" height="54">
<path d="M245 -1H1V53H245V-1Z" fill="white"/>
</mask>
<g mask="url(#mask0_127_28)">
<path d="M26.5 0.643555C40.5005 0.643555 51.8496 11.9928 51.8496 25.9932C51.8496 27.7519 51.0253 29.3917 49.7695 30.6475L31.1543 49.2627C29.8984 50.5185 28.2587 51.3428 26.5 51.3428C12.4995 51.3428 1.1504 39.9936 1.15039 25.9932C1.15039 11.9928 12.4995 0.643555 26.5 0.643555Z" fill="white" stroke="white" stroke-width="0.3"/>
<path d="M222.487 19.7896V0H228.598V19.7896H222.487ZM216 12.8327V6.9099H235.085V12.8327H216Z" fill="white"/>
</g>
<g clip-path="url(#clip1_127_28)">
<path d="M36.9031 25.7082C35.5674 25.4352 34.2624 26.2973 33.9889 27.6329C33.8969 28.0837 33.7286 28.5044 33.4966 28.8862C33.1485 29.459 32.6562 29.9411 32.0749 30.2748C31.4919 30.609 30.8288 30.7984 30.1008 30.799C29.6199 30.799 29.1691 30.7154 28.7489 30.5639C28.1195 30.3361 27.5599 29.9496 27.1211 29.4525C26.6834 28.9548 26.3583 28.3915 26.1161 27.7555C25.8078 26.9452 25.818 25.5386 26.0776 24.7079C26.2705 24.09 26.8441 23.1414 27.6261 22.6136C28.0174 22.3491 28.4472 22.1412 28.9052 21.9981C29.3639 21.8562 29.8502 21.7781 30.3623 21.7781C31.0969 21.7787 31.7803 21.9368 32.4001 22.2211C33.0193 22.5048 33.5729 22.9166 34.0225 23.4228C34.8724 24.3774 36.3356 24.4627 37.2908 23.6134C38.246 22.764 38.3319 21.3009 37.4819 20.3451C36.6109 19.3659 35.5402 18.5676 34.3309 18.0128C33.122 17.4573 31.7713 17.1477 30.3623 17.1484C29.7985 17.1484 29.2437 17.1995 28.7033 17.2945C29.3267 16.147 30.048 14.9736 30.8535 13.8218C32.0021 12.1784 33.3162 10.5782 34.7294 9.15412C35.6299 8.24706 35.6244 6.78037 34.7161 5.87987C33.8086 4.97937 32.3431 4.98538 31.4427 5.89366V5.89305C29.2817 8.07271 27.3822 10.5384 25.8307 13.0283C25.3378 13.82 24.8803 14.614 24.462 15.4038C24.5924 14.7077 24.7456 14.0357 24.9206 13.3913C25.4677 11.3812 26.2052 9.62661 26.965 8.14964C27.5107 7.08864 27.0936 5.78603 26.0326 5.24025C24.9711 4.6938 23.6685 5.11107 23.1227 6.17199C22.2457 7.87557 21.3885 9.9121 20.7507 12.2564C20.4303 13.4346 20.1653 14.6915 19.9807 16.0206V10.0059C19.9807 8.94069 19.1169 8.07751 18.0511 8.07751C16.986 8.07751 16.1221 8.94069 16.1221 10.0059V22.8919V44H28.1744C28.1744 44 28.1744 41.634 28.1744 40.9139C28.1744 39.3709 28.9974 38.2377 30.1293 37.621C31.1445 37.0668 33.7324 35.6848 36.0497 33.46C36.0658 33.4456 36.0803 33.4306 36.096 33.4162C36.1056 33.4072 36.1158 33.3981 36.1248 33.3885C36.3749 33.1589 36.6135 32.9166 36.8359 32.6606C37.814 31.5317 38.5154 30.1491 38.8274 28.6229C39.1008 27.2867 38.2394 25.9822 36.9031 25.7082Z" fill="black"/>
</g>
</g>
<defs>
<clipPath id="clip0_127_28">
<rect width="244" height="54" fill="white"/>
</clipPath>
<clipPath id="clip1_127_28">
<rect width="39" height="39" fill="white" transform="translate(8 5)"/>
</clipPath>
</defs>
</svg>
